# xmcd CD database file
#
# Track frame offsets:
#	150
#	11495
#	23018
#	34305
#	46394
#	60487
#	70792
#	82264
#	93882
#	106838
#	118603
#	130475
#	142937
#	154514
#	167745
#	182094
#	198388
#	210656
#	228159
#	245919
#
# Disc length: 3523 seconds
#
# Revision: 3
# Processed by: cddbd v1.4PL0 Copyright (c) Steve Scherf et al.
# Submitted via: CDex 1.50Beta7
#
DISCID=0c0dc114
DTITLE=Anibal Troilo - Quejas De Bandoneon
DYEAR=1900
DGENRE=Tango
TTITLE0=Milongueando en el 40
TTITLE1=El Tamango
TTITLE2=C.T.V.
TTITLE3=La Maleva
TTITLE4=Inspiracion
TTITLE5=El Distinguido Ciudadano
TTITLE6=Pablo
TTITLE7=La Cumparsita
TTITLE8=Chique
TTITLE9=El Entrerriano
TTITLE10=Quejas de Bandoneon
TTITLE11=Color de Rosa
TTITLE12=El Africano
TTITLE13=Tres y Dos
TTITLE14=La Revancha
TTITLE15=Ojos Negros
TTITLE16=Patetico
TTITLE17=Para Lucirse
TTITLE18=Responso
TTITLE19=Orlando Goñi
EXTD=
EXTT0=
EXTT1=
EXTT2=
EXTT3=
EXTT4=
EXTT5=
EXTT6=
EXTT7=
EXTT8=
EXTT9=
EXTT10=
EXTT11=
EXTT12=
EXTT13=
EXTT14=
EXTT15=
EXTT16=
EXTT17=
EXTT18=
EXTT19=
PLAYORDER=
